<svg width="25" height="25" viewBox="0 0 25 25" fill="none" xmlns="http://www.w3.org/2000/svg">
<g clip-path="url(#clip0_6_671)">
<path d="M3.02889 3.02917L21.204 3.02917C21.4718 3.02917 21.7286 3.13556 21.9179 3.32492C22.1073 3.51428 22.2137 3.7711 22.2137 4.0389V20.1945C22.2137 20.4623 22.1073 20.7191 21.9179 20.9085C21.7286 21.0979 21.4718 21.2042 21.204 21.2042H3.02889C2.7611 21.2042 2.50427 21.0979 2.31491 20.9085C2.12555 20.7191 2.01917 20.4623 2.01917 20.1945L2.01917 4.0389C2.01917 3.7711 2.12555 3.51428 2.31491 3.32492C2.50427 3.13556 2.7611 3.02917 3.02889 3.02917ZM20.1942 7.30839L12.1891 14.4775L4.03862 7.28618L4.03862 19.1848H20.1942V7.30839ZM4.55459 5.04863L12.178 11.7754L19.6914 5.04863L4.55459 5.04863Z" fill="white"/>
</g>
<defs>
<clipPath id="clip0_6_671">
<rect width="24.2334" height="24.2334" fill="white"/>
</clipPath>
</defs>
</svg>
